:SAMPLES-PER-SECOND 30
:FRAME-RANGE 1-3358
:FULLY-SPECIFIED
:DEGREES
1050
root  18.4135 37.4901 -37.8141 8.38062 -8.67352 -5.13383
RightUpLeg  -20.2875 -12.5356 3.78901
RightLeg  37.0791 -1.03633 -1.10603
RightFoot  -22.8652 0.33327 4.83758
RightToes  -1.11029e-010 1.2921e-014 -6.02303e-014
Spine  5.44995 3.28917 14.3339
Spine1  8.71885 4.98762 -4.48288
HEad  7.42201 -9.80248 2.77852
LeftShoulder1  2.27972 -5.4175 -19.9315
LeftArm  4.10027 -0.908706 -58.5259
LeftForeArm  42.2437 1.57399 -14.3169
LeftHand  -0.00394533 5.91326 4.99601
RightShoulder  2.91458 9.72123 15.758
RightArm  9.98436 54.0657 81.6399
RightForeArm  28.577 23.0642 3.56755
RightHand  -0.49009 -3.47683 -29.2202
LeftUpLeg  -42.4981 19.2104 -10.0685
LeftLeg  26.839 8.51944 4.99632
LeftFoot  -7.05952 0.227923 -4.96322
LeftToes  -1.90334e-010 -8.83595e-011 4.99953e-011
1051
root  18.0664 37.3896 -36.6989 8.12439 -5.3046 -5.79218
RightUpLeg  -17.5037 -14.703 4.67891
RightLeg  36.7576 -2.0469 -1.90493
RightFoot  -24.6044 0.445109 5.26207
RightToes  -1.11029e-010 1.2921e-014 -6.02303e-014
Spine  4.75935 4.03305 14.6838
Spine1  8.91834 5.46841 -3.7474
HEad  8.34176 -10.733 4.83171
LeftShoulder1  2.19605 -5.29819 -19.2752
LeftArm  5.30097 -1.82949 -59.7056
LeftForeArm  41.5326 0.139829 -14.3081
LeftHand  -0.0038769 5.90214 5.08478
RightShoulder  2.97839 10.0253 15.7244
RightArm  8.75582 54.966 83.6179
RightForeArm  27.0474 25.7969 4.09387
RightHand  -0.41577 -3.79604 -29.7378
LeftUpLeg  -42.9289 22.5244 -13.54
LeftLeg  24.7008 15.4938 7.96613
LeftFoot  -6.51409 0.201834 -3.86066
LeftToes  -1.90334e-010 -8.83595e-011 4.99953e-011
1052
root  17.7495 37.2789 -35.4961 7.61841 -1.2849 -5.97733
RightUpLeg  -14.6811 -17.1983 5.07359
RightLeg  36.9423 -3.36784 -2.97886
RightFoot  -26.0145 0.63875 6.32868
RightToes  -1.11029e-010 1.2921e-014 -6.02303e-014
Spine  4.60508 4.60472 14.4767
Spine1  8.03213 5.94988 -3.49778
HEad  9.39031 -12.4039 7.18091
LeftShoulder1  2.12565 -5.23998 -18.5739
LeftArm  8.63172 -2.03432 -60.7065
LeftForeArm  38.7447 -2.47121 -14.3471
LeftHand  -0.0174126 5.54667 5.23915
RightShoulder  3.00982 10.3297 15.4311
RightArm  6.08796 56.272 84.6641
RightForeArm  25.5718 29.3905 4.97191
RightHand  -0.345445 -4.07658 -29.9759
LeftUpLeg  -43.1229 25.121 -17.1996
LeftLeg  24.5121 22.8572 11.2582
LeftFoot  -5.06276 -0.288037 5.80373
LeftToes  -1.90334e-010 -8.83595e-011 4.99953e-011
1053
root  17.5047 37.1201 -34.1686 6.58179 3.62137 -6.26918
RightUpLeg  -12.8345 -20.1639 4.94719
RightLeg  40.8051 -3.33287 -3.36308
RightFoot  -25.9991 1.07608 9.72236
RightToes  -1.11029e-010 1.2921e-014 -6.02303e-014
Spine  4.29419 4.96062 14.7517
Spine1  7.49995 6.15756 -3.21817
HEad  9.50577 -14.6856 9.3801
LeftShoulder1  2.09626 -5.28525 -18.0621
LeftArm  15.182 -2.3411 -61.6639
LeftForeArm  34.1422 -6.3122 -14.0063
LeftHand  -0.0271376 5.30576 5.32028
RightShoulder  3.02619 10.6932 14.9311
RightArm  2.74395 59.3349 84.5963
RightForeArm  24.1559 32.8953 5.89343
RightHand  -1.45309 -0.68122 -34.9972
LeftUpLeg  -40.9172 23.0495 -16.6034
LeftLeg  25.9164 26.0567 13.3819
LeftFoot  -5.63866 -0.649005 13.6451
LeftToes  -1.90334e-010 -8.83595e-011 4.99953e-011
1054
root  17.4141 36.8784 -32.8658 5.15161 9.05273 -5.01285
RightUpLeg  -13.2599 -24.192 1.48739
RightLeg  50.8364 -0.246897 -0.687621
RightFoot  -22.9258 1.33935 14.6721
RightToes  -1.11029e-010 1.2921e-014 -6.02303e-014
Spine  4.20478 5.12087 13.868
Spine1  7.53473 6.38629 -3.62199
HEad  9.95591 -17.3318 11.5293
LeftShoulder1  2.11104 -5.49834 -17.6043
LeftArm  22.933 -3.19069 -62.9855
LeftForeArm  29.6611 -9.36871 -13.3962
LeftHand  -0.0268678 5.31054 5.51199
RightShoulder  2.89827 11.0069 13.4244
RightArm  -4.12474 62.3552 83.1404
RightForeArm  26.1008 37.395 6.96813
RightHand  -2.05795 1.02883 -36.2737
LeftUpLeg  -37.5787 16.6848 -14.9949
LeftLeg  30.5552 27.039 16.4649
LeftFoot  -8.89702 -0.220237 12.7847
LeftToes  -1.90334e-010 -8.83595e-011 4.99953e-011
1055
root  17.4599 36.7933 -31.5054 3.9541 15.0104 -3.57072
RightUpLeg  -15.9479 -25.6349 -2.66166
RightLeg  63.1798 1.18599 1.99291
RightFoot  -12.7327 0.0868958 14.2426
RightToes  -1.11029e-010 1.2921e-014 -6.02303e-014
Spine  4.0608 5.29784 14.0827
Spine1  7.02177 6.60666 -4.0969
HEad  10.9143 -19.7665 12.7489
LeftShoulder1  2.16319 -5.71756 -17.5995
LeftArm  30.7241 -4.13098 -64.2827
LeftForeArm  26.6585 -12.1816 -12.3058
LeftHand  -0.0374755 5.04747 5.16704
RightShoulder  2.58683 10.7132 11.431
RightArm  -11.5641 65.9281 80.8222
RightForeArm  27.6692 41.8627 8.20458
RightHand  -0.0489487 -5.20351 -29.4064
LeftUpLeg  -34.3157 11.3012 -14.7427
LeftLeg  34.184 26.3183 18.2523
LeftFoot  -11.0255 0.0348506 11.4508
LeftToes  -1.90334e-010 -8.83595e-011 4.99953e-011
1056
root  17.4981 36.8136 -30.1965 2.85632 20.9928 -2.3755
RightUpLeg  -19.6439 -22.9405 -4.92792
RightLeg  72.7688 0.635345 1.3511
RightFoot  -2.21136 -0.426752 5.15155
RightToes  -1.11029e-010 1.2921e-014 -6.02303e-014
Spine  4.0559 5.42244 14.4689
Spine1  6.81451 6.80393 -4.38799
HEad  11.6334 -20.3786 12.6953
LeftShoulder1  2.15324 -5.71913 -17.4754
LeftArm  38.7775 -4.47226 -65.5833
LeftForeArm  22.4665 -15.7042 -10.0752
LeftHand  -0.0327938 5.15792 4.87293
RightShoulder  2.2529 10.5486 8.98403
RightArm  -19.7098 70.1804 76.2316
RightForeArm  29.3842 46.6203 9.74098
RightHand  0.170078 -6.06755 -28.8965
LeftUpLeg  -30.6196 7.96284 -14.984
LeftLeg  35.6969 24.2577 17.9123
LeftFoot  -13.1202 0.238248 10.222
LeftToes  -1.90334e-010 -8.83595e-011 4.99953e-011
1057
root  17.4642 36.7847 -28.9591 2.53033 27.3223 -0.647522
RightUpLeg  -22.2485 -17.1155 -6.47866
RightLeg  77.5993 -0.245716 -2.80981
RightFoot  -3.37771 -0.270979 3.56033
RightToes  -1.11029e-010 1.2921e-014 -6.02303e-014
Spine  4.6092 5.24572 13.8939
Spine1  5.68571 6.71779 -5.40549
HEad  11.9849 -19.5967 13.6532
LeftShoulder1  2.09812 -5.63075 -17.0615
LeftArm  44.7623 -3.70002 -66.1863
LeftForeArm  18.622 -19.2491 -7.01558
LeftHand  -0.0373152 5.03454 4.83673
RightShoulder  1.88536 9.86451 6.79294
RightArm  -27.963 74.3769 70.62
RightForeArm  31.6778 51.1526 11.4529
RightHand  0.304539 -6.63798 -28.0995
LeftUpLeg  -27.3785 4.60779 -15.7631
LeftLeg  36.8093 21.9434 17.0457
LeftFoot  -15.0616 0.38904 9.16407
LeftToes  -1.90334e-010 -8.83595e-011 4.99953e-011
1058
root  17.4688 36.9228 -27.6484 2.69849 35.0943 0.988373
RightUpLeg  -23.765 -12.0306 -8.0642
RightLeg  77.8227 -0.903054 -6.50073
RightFoot  -6.54217 -0.132458 2.09951
RightToes  -1.11029e-010 1.2921e-014 -6.02303e-014
Spine  4.30231 4.49183 13.3166
Spine1  4.63621 5.83129 -5.68981
HEad  12.1073 -18.3419 14.5282
LeftShoulder1  2.20266 -6.03356 -17.1779
LeftArm  47.4467 -2.77329 -65.7219
LeftForeArm  15.7405 -22.2709 -4.62376
LeftHand  -0.034125 5.15598 5.24678
RightShoulder  1.46213 9.20458 3.81498
RightArm  -41.9456 77.8165 57.1508
RightForeArm  33.8046 55.3196 13.389
RightHand  0.254019 -6.3748 -29.4948
LeftUpLeg  -23.3994 0.236273 -16.2193
LeftLeg  36.2984 19.6453 15.198
LeftFoot  -16.3868 0.462522 8.24306
LeftToes  -1.90334e-010 -8.83595e-011 4.99953e-011
1059
root  17.4924 37.118 -26.2845 3.0285 43.9198 2.32037
RightUpLeg  -24.406 -6.8772 -9.64992
RightLeg  74.6479 -1.7356 -8.36203
RightFoot  -10.1777 -0.0935098 2.40925
RightToes  -1.11029e-010 1.2921e-014 -6.02303e-014
Spine  3.44425 3.62815 12.8698
Spine1  3.7049 4.75116 -5.73179
HEad  12.3558 -17.3518 15.2998
LeftShoulder1  2.31418 -6.57559 -16.9987
LeftArm  47.327 -2.77389 -65.6697
LeftForeArm  16.6743 -23.8976 -4.23652
LeftHand  -0.0351612 5.12046 5.26494
RightShoulder  1.02911 7.82828 1.01696
RightArm  -66.8436 79.6461 32.2426
RightForeArm  36.5738 58.3109 14.9638
RightHand  0.329837 -6.66075 -29.6301
LeftUpLeg  -19.3583 -4.19004 -16.0317
LeftLeg  35.4435 16.4728 12.5931
LeftFoot  -17.6309 0.529726 7.6974
LeftToes  -1.90334e-010 -8.83595e-011 4.99953e-011
1060
root  17.5558 37.3128 -24.8638 3.62701 51.9479 3.61687
RightUpLeg  -24.8086 -0.846077 -11.7833
RightLeg  69.2703 -2.65273 -8.51821
RightFoot  -12.0417 -0.0643728 2.82503
RightToes  -1.11029e-010 1.2921e-014 -6.02303e-014
Spine  2.80446 3.14094 12.7571
Spine1  2.35073 4.18522 -6.24915
HEad  12.8824 -15.9939 15.3515
LeftShoulder1  2.3764 -6.89074 -16.8751
LeftArm  46.3116 -2.85825 -65.7652
LeftForeArm  19.5784 -25.1465 -4.34999
LeftHand  -0.039399 5.18408 5.09976
RightShoulder  0.667138 6.60076 -1.87288
RightArm  -95.9276 78.9282 3.44894
RightForeArm  40.3048 59.852 15.663
RightHand  0.542874 -7.49026 -29.4796
LeftUpLeg  -15.8453 -7.98675 -15.2998
LeftLeg  34.8066 13.2585 10.0921
LeftFoot  -19.0347 0.548641 6.44928
LeftToes  -1.90334e-010 -8.83595e-011 4.99953e-011
1061
root  17.7055 37.4519 -23.3518 4.20099 59.4648 5.01727
RightUpLeg  -24.319 5.73049 -14.4604
RightLeg  62.4833 -3.29219 -7.38736
RightFoot  -13.8577 -0.0338063 2.73568
RightToes  -1.11029e-010 1.2921e-014 -6.02303e-014
Spine  2.03942 3.03531 12.6446
Spine1  1.57621 4.03475 -6.91422
HEad  13.1069 -13.7274 15.735
LeftShoulder1  2.42585 -7.2346 -16.5578
LeftArm  45.9815 -3.23203 -66.0878
LeftForeArm  20.8446 -26.3539 -4.54518
LeftHand  -0.0412749 5.12072 4.85716
RightShoulder  0.357429 5.21946 -4.82394
RightArm  -118.092 76.0712 -18.7236
RightForeArm  42.4065 60.7215 16.0931
RightHand  0.552097 -7.587 -28.7432
LeftUpLeg  -12.4771 -11.8366 -14.2123
LeftLeg  34.6979 10.417 8.04011
LeftFoot  -20.7508 0.581935 5.54986
LeftToes  -1.90334e-010 -8.83595e-011 4.99953e-011
